<svg width="2000" height="2001" viewBox="0 0 2000 2001" fill="none" xmlns="http://www.w3.org/2000/svg">
<path fill-rule="evenodd" clip-rule="evenodd" d="M163.845 1046.2C-54.404 1264.47 -54.4314 1618.85 163.763 1837.07C375.525 2048.86 715.516 2055.04 934.887 1855.71L602.368 1523.18C567.498 1541.63 523.268 1536.21 493.928 1506.86C457.909 1470.84 457.909 1412.35 493.928 1376.32C493.928 1376.32 847.822 1022.41 934.969 935.229L604.886 605.107L163.845 1046.2Z" fill="black"/>
<path fill-rule="evenodd" clip-rule="evenodd" d="M954.401 164.343C736.153 -53.9319 381.82 -53.9866 163.626 164.233C-48.1362 376.02 -54.3492 716.051 144.96 935.448L477.478 602.917C459.004 568.044 464.45 523.781 493.791 494.437C529.783 458.441 588.272 458.441 624.291 494.464C624.291 494.464 978.159 848.374 1065.33 935.558L1395.42 605.408L954.401 164.343Z" fill="black"/>
<path fill-rule="evenodd" clip-rule="evenodd" d="M1045.6 1836.82C1263.85 2055.1 1618.18 2055.12 1836.37 1836.9C2048.14 1625.12 2054.35 1285.09 1855.04 1065.72L1522.52 1398.25C1541 1433.12 1535.55 1477.38 1506.21 1506.7C1470.22 1542.72 1411.73 1542.72 1375.71 1506.7C1375.71 1506.7 1021.84 1152.79 934.668 1065.61L604.585 1395.73L1045.6 1836.82Z" fill="black"/>
<path fill-rule="evenodd" clip-rule="evenodd" d="M1835.69 954.5C2053.94 736.225 2053.97 381.851 1835.77 163.631C1624.01 -48.1562 1284.02 -54.3425 1064.65 144.99L1397.17 477.52C1432.04 459.071 1476.27 464.491 1505.61 493.835C1541.63 529.858 1541.63 588.355 1505.61 624.378C1505.61 624.378 1151.74 978.287 1064.57 1065.47L1394.65 1395.59L1835.69 954.5Z" fill="black"/>
</svg>
